<svg width="40" height="41" viewBox="0 0 40 41" fill="none" xmlns="http://www.w3.org/2000/svg">
<path d="M33.3534 7.86161L29.3741 4.0514C27.91 2.64953 25.5262 2.64953 24.0622 4.0514L18.7502 9.13767L22.7295 12.9479L26.7088 9.13767L33.3534 15.5C34.4081 14.4855 35.0002 13.1123 35.0002 11.6808C35.0002 10.2493 34.4081 8.8761 33.3534 7.86161Z" fill="white"/>
<path d="M8.26962 23.4822C9.29545 24.5059 10.9472 24.5059 11.9557 23.4822L16.2502 19.1961L12.5642 15.5L8.26962 19.7861C7.24379 20.8099 7.24379 22.4584 8.26962 23.4822Z" fill="white"/>
<path d="M25.5404 13.1679L30.7145 18.1822C30.8843 18.3462 31.0191 18.541 31.111 18.7553C31.2029 18.9696 31.2502 19.1993 31.2502 19.4313C31.2502 19.6633 31.2029 19.893 31.111 20.1074C31.0191 20.3217 30.8843 20.5164 30.7145 20.6805C30.5446 20.8445 30.3429 20.9746 30.121 21.0634C29.899 21.1522 29.6612 21.1979 29.4209 21.1979C29.1807 21.1979 28.9428 21.1522 28.7209 21.0634C28.499 20.9746 28.2973 20.8445 28.1274 20.6805L11.266 36.9635C9.83485 38.3455 7.5047 38.3455 6.07358 36.9635C4.64247 35.5815 4.64247 33.3313 6.07358 31.9492L19.0454 19.4225L13.2108 13.7881C12.9534 13.5425 12.749 13.2501 12.6096 12.9277C12.4701 12.6053 12.3983 12.2594 12.3983 11.91C12.3983 11.5606 12.4701 11.2146 12.6096 10.8922C12.749 10.5698 12.9534 10.2774 13.2108 10.0318C14.275 8.98646 16.018 8.98646 17.1005 10.0495L22.9351 15.6839L25.5404 13.1679Z" fill="white"/>
</svg>
