<svg width="40" height="41" viewBox="0 0 40 41" fill="none" xmlns="http://www.w3.org/2000/svg">
<g clip-path="url(#clip0_58_228)">
<path d="M13.9111 15.4068L7.61136 15.4068L7.2617 16.08L13.5258 16.08L10.788 20.8623H4.77758L4.42792 21.5355H10.4027L7.88134 25.9399H2.11147L3.6632 22.9568V21.5355H3.68174V20.8623H3.6632V16.08H3.68174V15.4068H3.6632V15.0489H3.68174V13.7195H8.46824L10.2344 10.3242H16.8207L13.9111 15.4068Z" fill="white"/>
<path d="M17.5964 10.3242L14.6868 15.4068H20.1568L23.0664 10.3242H17.5964Z" fill="white"/>
<path d="M23.842 10.3242L20.9324 15.4068L26.8217 15.4068L28.1227 12.8683L36.9616 30.6767H40.3524L29.7655 10.3242H23.842Z" fill="white"/>
<path d="M26.4767 16.08L20.5471 16.08L17.8094 20.8623H24.0258L26.4767 16.08Z" fill="white"/>
<path d="M23.6808 21.5355H17.424L14.9027 25.9399H21.4236L23.6808 21.5355Z" fill="white"/>
<path d="M21.0786 26.613H14.5173L12.191 30.6767H18.996L21.0786 26.613Z" fill="white"/>
<path d="M11.4153 30.6767L13.7417 26.613H8.27163L5.94531 30.6767H11.4153Z" fill="white"/>
<path d="M5.16967 30.6767L7.49599 26.613H1.76131L-0.352539 30.6767H5.16967Z" fill="white"/>
<path d="M14.3014 16.08H19.7714L17.0337 20.8623H11.5637L14.3014 16.08Z" fill="white"/>
<path d="M11.1783 21.5355L8.65699 25.9399H14.127L16.6484 21.5355H11.1783Z" fill="white"/>
<path d="M24.8872 22.972H27.855V25.9398H24.8872V22.972Z" fill="white"/>
<path d="M24.8872 26.6819H27.855V29.6497H24.8872V26.6819Z" fill="white"/>
<path d="M31.5645 22.972H28.5967V25.9398H31.5645V22.972Z" fill="white"/>
<path d="M28.5967 26.6819H31.5645V29.6497H28.5967V26.6819Z" fill="white"/>
</g>
<defs>
<clipPath id="clip0_58_228">
<rect width="40" height="40" fill="white" transform="translate(0 0.5)"/>
</clipPath>
</defs>
</svg>
