<svg width="40" height="41" viewBox="0 0 40 41" fill="none" xmlns="http://www.w3.org/2000/svg">
<path d="M5 9.5C5 8.94771 5.44772 8.5 6 8.5H18.0816C18.6339 8.5 19.0816 8.94772 19.0816 9.5V14.2568C19.0816 14.809 18.6339 15.2568 18.0816 15.2568H6C5.44771 15.2568 5 14.809 5 14.2568V9.5Z" fill="white"/>
<path d="M5 18.6216C5 18.0693 5.44772 17.6216 6 17.6216H11.9592C12.5115 17.6216 12.9592 18.0693 12.9592 18.6216V23.3784C12.9592 23.9307 12.5115 24.3784 11.9592 24.3784H6C5.44772 24.3784 5 23.9307 5 23.3784V18.6216Z" fill="white"/>
<path d="M14.7959 18.6216C14.7959 18.0693 15.2436 17.6216 15.7959 17.6216H27.8776C28.4298 17.6216 28.8776 18.0693 28.8776 18.6216V23.3784C28.8776 23.9307 28.4298 24.3784 27.8776 24.3784H15.7959C15.2436 24.3784 14.7959 23.9307 14.7959 23.3784V18.6216Z" fill="white"/>
<path d="M5 27.7432C5 27.191 5.44772 26.7432 6 26.7432H18.0816C18.6339 26.7432 19.0816 27.191 19.0816 27.7432V32.5C19.0816 33.0523 18.6339 33.5 18.0816 33.5H6C5.44771 33.5 5 33.0523 5 32.5V27.7432Z" fill="white"/>
<path d="M20.9184 27.7432C20.9184 27.191 21.3661 26.7432 21.9184 26.7432H34C34.5523 26.7432 35 27.191 35 27.7432V32.5C35 33.0523 34.5523 33.5 34 33.5H21.9184C21.3661 33.5 20.9184 33.0523 20.9184 32.5V27.7432Z" fill="white"/>
</svg>
