<svg width="40" height="41" viewBox="0 0 40 41" fill="none" xmlns="http://www.w3.org/2000/svg">
<g clip-path="url(#clip0_58_166)">
<path d="M37.5 21.75H2.5C2.16848 21.75 1.85054 21.8817 1.61612 22.1161C1.3817 22.3505 1.25 22.6685 1.25 23V29.25C1.25199 31.2385 2.0428 33.145 3.44889 34.5511C4.85498 35.9572 6.76149 36.748 8.75 36.75H10V39.25C10 39.5815 10.1317 39.8995 10.3661 40.1339C10.6005 40.3683 10.9185 40.5 11.25 40.5C11.5815 40.5 11.8995 40.3683 12.1339 40.1339C12.3683 39.8995 12.5 39.5815 12.5 39.25V36.75H27.5V39.25C27.5 39.5815 27.6317 39.8995 27.8661 40.1339C28.1005 40.3683 28.4185 40.5 28.75 40.5C29.0815 40.5 29.3995 40.3683 29.6339 40.1339C29.8683 39.8995 30 39.5815 30 39.25V36.75H31.25C33.2385 36.748 35.145 35.9572 36.5511 34.5511C37.9572 33.145 38.748 31.2385 38.75 29.25V23C38.75 22.6685 38.6183 22.3505 38.3839 22.1161C38.1495 21.8817 37.8315 21.75 37.5 21.75Z" fill="white"/>
<path d="M20 8.125V6.75C20 5.75544 20.3951 4.80161 21.0983 4.09835C21.8016 3.39509 22.7554 3 23.75 3C24.7446 3 25.6984 3.39509 26.4017 4.09835C27.1049 4.80161 27.5 5.75544 27.5 6.75V19.25H30V6.75C30 5.0924 29.3415 3.50269 28.1694 2.33058C26.9973 1.15848 25.4076 0.5 23.75 0.5C22.0924 0.5 20.5027 1.15848 19.3306 2.33058C18.1585 3.50269 17.5 5.0924 17.5 6.75V8.125C16.0893 8.41512 14.8217 9.18273 13.9109 10.2984C13.0001 11.4141 12.5018 12.8097 12.5 14.25C12.5 14.5815 12.6317 14.8995 12.8661 15.1339C13.1005 15.3683 13.4185 15.5 13.75 15.5H23.75C24.0815 15.5 24.3995 15.3683 24.6339 15.1339C24.8683 14.8995 25 14.5815 25 14.25C24.9982 12.8097 24.4999 11.4141 23.5891 10.2984C22.6783 9.18273 21.4107 8.41512 20 8.125Z" fill="white"/>
</g>
<defs>
<clipPath id="clip0_58_166">
<rect width="40" height="40" fill="white" transform="translate(0 0.5)"/>
</clipPath>
</defs>
</svg>
