<svg width="40" height="41" viewBox="0 0 40 41" fill="none" xmlns="http://www.w3.org/2000/svg">
<path d="M34.721 3.45898H31.1954C30.9727 3.45898 30.7696 3.58466 30.6698 3.78377L27.6698 9.78406L24.6698 3.78377C24.5699 3.58466 24.3668 3.45898 24.1441 3.45898H11.2168C10.892 3.45898 10.6292 3.72208 10.6292 4.04659V19.4291L5.06875 15.8905C4.83692 15.7433 4.53279 15.7755 4.33769 15.9708L1.39966 18.9089C1.17989 19.1289 1.16898 19.4821 1.37613 19.7148L10.6292 30.1247V36.9525C10.6292 37.277 10.892 37.5401 11.2168 37.5401H17.6805V28.1384C17.6805 27.8139 17.9433 27.5508 18.2681 27.5508C18.5929 27.5508 18.8557 27.8139 18.8557 28.1384V37.5401H34.721C35.0458 37.5401 35.3086 37.277 35.3086 36.9525V4.04659C35.3086 3.72208 35.0458 3.45898 34.721 3.45898ZM18.8557 24.6128C18.8557 24.9373 18.5929 25.2004 18.2681 25.2004C17.9433 25.2004 17.6805 24.9373 17.6805 24.6128V23.4376C17.6805 23.1131 17.9433 22.85 18.2681 22.85C18.5929 22.85 18.8557 23.1131 18.8557 23.4376V24.6128Z" fill="white"/>
</svg>
