<svg width="40" height="41" viewBox="0 0 40 41" fill="none" xmlns="http://www.w3.org/2000/svg">
<path d="M28.6798 8.45473C28.1228 9.03409 27.8191 9.81066 27.8355 10.6136C27.8697 12.2856 29.2549 13.6134 30.9294 13.5793C31.7335 13.5629 32.4981 13.2282 33.0551 12.6488L37.0855 8.45657C37.8824 10.0389 38.1685 11.829 37.9043 13.5804C37.6401 15.3318 36.8387 16.9584 35.6103 18.2361C34.3819 19.5138 32.7871 20.3798 31.0454 20.7149C29.3036 21.05 27.5007 20.8376 25.8849 20.1071C23.7516 18.5192 22.8051 17.5993 21.5095 15.913C20.7126 14.3307 20.4265 12.5405 20.6907 10.7891C20.9549 9.03774 21.7564 7.41119 22.9847 6.13348C24.2131 4.85578 25.808 3.98976 27.5497 3.65468C29.2914 3.3196 31.0943 3.53194 32.7102 4.26246L28.6798 8.45473Z" fill="white"/>
<path d="M13.6158 24.2865L18.0138 28.4566L11.4846 35.3827C10.9276 35.962 10.1629 36.2967 9.35881 36.3131C8.5547 36.3295 7.77699 36.0263 7.19678 35.4701C6.61658 34.9139 6.2814 34.1504 6.26498 33.3474C6.24856 32.5445 6.55225 31.7679 7.10923 31.1886L13.6158 24.2865Z" fill="white"/>
<path d="M19.1656 16.8031L33.4581 30.3549C34.8708 31.6944 34.946 33.9181 33.6269 35.3497C32.2781 36.8136 29.99 36.8907 28.5454 35.521L14.2529 21.9692C13.0889 20.8655 12.8329 19.1618 13.5166 17.7953L6.88164 11.3991L5.65128 12.6289L2 7.71036L4.25829 5.2162L9.53806 8.74396L8.31768 9.96376L14.9038 16.3128C16.2384 15.5304 17.9841 15.6828 19.1656 16.8031Z" fill="white"/>
</svg>
