<svg width="40" height="41" viewBox="0 0 40 41" fill="none" xmlns="http://www.w3.org/2000/svg">
<path d="M36.2948 10.4784H19.4752C18.9047 9.91933 18.1817 9.54118 17.3971 9.39134C16.6125 9.24151 15.8011 9.32665 15.0647 9.6361C14.3283 9.94555 13.6996 10.4655 13.2575 11.1308C12.8154 11.7961 12.5796 12.5771 12.5796 13.3759C12.5796 14.1747 12.8154 14.9557 13.2575 15.6211C13.6996 16.2864 14.3283 16.8063 15.0647 17.1158C15.8011 17.4252 16.6125 17.5104 17.3971 17.3605C18.1817 17.2107 18.9047 16.8325 19.4752 16.2735H36.2948C36.4485 16.2735 36.5959 16.2125 36.7046 16.1038C36.8133 15.9951 36.8744 15.8477 36.8744 15.694V11.0579C36.8744 10.9042 36.8133 10.7568 36.7046 10.6481C36.5959 10.5394 36.4485 10.4784 36.2948 10.4784Z" fill="white"/>
<path d="M21.6599 1.22949H10.2279C9.46996 1.22949 8.74302 1.5306 8.20704 2.06658C7.67107 2.60256 7.36996 3.3295 7.36996 4.08749L6.82373 36.9132C6.82373 37.6712 7.12484 38.3981 7.66082 38.9341C8.19679 39.4701 8.92374 39.7712 9.68172 39.7712H21.1137C21.8717 39.7712 22.5986 39.4701 23.1346 38.9341C23.6706 38.3981 23.9717 37.6712 23.9717 36.9132L24.5179 18.3775H20.6975C19.3794 19.4422 17.6944 19.9438 16.0086 19.773C14.3229 19.6023 12.7726 18.7732 11.6948 17.4658C10.9878 16.6089 10.5149 15.5834 10.3221 14.4893C10.1293 13.3953 10.2232 12.2699 10.5948 11.2229C10.9663 10.176 11.6027 9.24312 12.442 8.51527C13.2812 7.78743 14.2948 7.28943 15.3838 7.06981C15.8037 6.98773 16.2305 6.9461 16.6584 6.94549C18.129 6.94238 19.5555 7.44716 20.6968 8.37449H24.5179V4.08749C24.5179 3.3295 24.2168 2.60256 23.6808 2.06658C23.1448 1.5306 22.4179 1.22949 21.6599 1.22949ZM15.3977 24.7667C16.0258 24.7637 16.6373 24.9688 17.1367 25.3497C17.6361 25.7307 17.9953 26.2662 18.1585 26.8728C18.3216 27.4794 18.2795 28.1229 18.0386 28.703C17.7977 29.2831 17.3715 29.7672 16.8267 30.0797V33.3407C16.8267 33.5302 16.7514 33.7119 16.6174 33.8459C16.4834 33.9799 16.3017 34.0552 16.1122 34.0552H14.6832C14.4937 34.0552 14.312 33.9799 14.178 33.8459C14.044 33.7119 13.9687 33.5302 13.9687 33.3407V30.0797C13.4239 29.7672 12.9978 29.2831 12.7569 28.703C12.5159 28.1229 12.4738 27.4794 12.6369 26.8728C12.8001 26.2662 13.1594 25.7307 13.6588 25.3497C14.1581 24.9688 14.7696 24.7637 15.3977 24.7667Z" fill="white"/>
</svg>
